<html>
<head>
<meta charset="UTF-8">
<meta name="viewport" content="width=device-width, initial-scale=1.0"/>

<style>
.comment
{
    padding-left: 20px;
    margin-top: 4px;
    margin-right: 4px;
    margin-bottom: 4px;
    border: 2px #000 solid;
}
.submission
{
    border: 4px #00f solid;
    padding-left: 20px;
}
.hidden
{
    display: none;
}
</style>
</head>
<body><div class="submission" id="t3_702th0">
    <p class="userinfo">
        <a href="https://www.reddit.com/u/Ed_ButteredToast">Ed_ButteredToast</a>
        <span class="score"> | 17 points</span>
        <span class="timestamp"> | Sep 14 2017 15:08:29</span>
    </p>
    <strong>[MUSIC] Selena Gomez - 'Revival' (Deluxe) (Japanese Edition) (2015) Album [FLAC] [24bit 44.1kHz 2CH] [MP3 320kbps] [642MB/140MB]</strong>
    <p><h6>https://itunes.apple.com/us/album/revival-deluxe/id1038308736</h6>
<h1><a href="http://links.snahp.it/417_">LINK HERE</a></h1>
<p><strong>Note</strong>: <em>Password to the Snahp.it link</em> <strong><em>and</em></strong> <em>the rar files is the same and is the last name of the album</em> <strong><em>"revival"</em></strong> <em>spelled backwards e.g WEBSITE = ETISBEW. Also when you access the MEGA link, replace "xxxx" with "mega". There are 2 folders, one for FLAC with 4 rar files and one for MP3 with 2 rar files. Use the password (same for all parts) and extracting part 1 will automatically extract the other part too and in the end you'll be left with 14 FLAC files, 17 MP3 files (Japanese Edition) plus 4 wallpapers that i included in the 2 rar packs (2,2).</em></p>
<p><strong>Japanese Edition Special Tracks:</strong></p>
<ul>
<li>
<p><em>Outta My Hands (Loco)</em></p>
</li>
<li>
<p><em>Cologne</em></p>
</li>
<li>
<p><em>Good For You (KASBO Remix)</em></p>
</li>
</ul>
<h1>Link Encoded in Base64</h1>
<p>1= <code>aHR0cHM6Ly94eHh4Lm56LyNGIXRIQkgwWURL</code></p>
<p>2= <code>IWMtaTloZ0U1WVFlbHZDamhwX2kyN3c</code></p>
<p><strong>How to decode?</strong></p>
<p><em>Go to https://www.base64decode.org and paste 1 and 2 (without any space) where it says "Type or (paste) here..." and click decode. You'll receive a link in the lower box. In that link, replace xxxx with MEGA.</em></p>
<h2>---</h2>
<h2>---</h2>
<h2>---</h2>
<h2>---</h2>
<h2>---</h2>
<h1><code>General</code></h1>
<p><code>Complete name                  : 13 - Nobody.flac</code></p>
<p><code>Format                         : FLAC</code></p>
<p><code>Format/Info                    : Free Lossless Audio Codec</code></p>
<p><code>File size                      : 43.2 MiB</code></p>
<p><code>Duration                       : 3mn 37s</code></p>
<p><code>Overall bit rate mode          : Variable</code></p>
<p><code>Overall bit rate               : 1 664 Kbps</code></p>
<p><code>Album                          : Revival</code></p>
<p><code>Album/Performer                : Selena Gomez</code></p>
<p><code>Track name                     : Nobody</code></p>
<p><code>Track name/Position            : 13</code></p>
<p><code>Performer                      : Selena Gomez</code></p>
<p><code>Genre                          : Pop / Electro Pop / Dance Pop</code></p>
<p><code>Recorded date                  : 2015</code></p>
<p><code>Copyright                      : ℗ 2015 Interscope Records</code></p>
<p><code>Cover                          : Yes</code></p>
<p><code>Cover type                     : Cover (front)</code></p>
<p><code>Cover MIME                     : image/jpeg</code></p>
<p><code>Comment                        : 09-10-2015</code></p>
<h1><code>Audio</code></h1>
<p><code>Format                         : FLAC</code></p>
<p><code>Format/Info                    : Free Lossless Audio Codec</code></p>
<p><code>Duration                       : 3mn 37s</code></p>
<p>`Bit rate mode                  : Variable</p>
<p><code>Bit rate                       : 1 639 Kbps</code></p>
<p><code>Channel(s)                     : 2 channels</code></p>
<p><code>Sampling rate                  : 44.1 KHz</code></p>
<p><code>Bit depth                      : 24 bits</code></p>
<p><code>Stream size                    : 42.5 MiB (98%)</code></p>
<p><code>Writing library                : libFLAC 1.2.1 (UTC 2007-09-17)</code></p>
<h2>---</h2>
<hr>
<h1><code>General</code></h1>
<p><code>Complete name                  : 02 - Kill Em With Kindness.mp3</code></p>
<p><code>Format                         : MPEG Audio</code></p>
<p><code>File size                      : 8.98 MiB</code></p>
<p><code>Duration                       : 3mn 37s</code></p>
<p><code>Overall bit rate mode          : Constant</code></p>
<p><code>Overall bit rate               : 320 Kbps</code></p>
<p><code>Album                          : Revival (Japanese Edition)</code></p>
<p><code>Track name                     : Kill Em With Kindness</code></p>
<p><code>Track name/Position            : 02</code></p>
<p><code>Performer                      : Selena Gomez</code></p>
<p><code>Genre                          : Pop</code></p>
<p><code>Recorded date                  : 2015</code></p>
<p><code>Writing library                : LAME3.99</code></p>
<p><code>Copyright                      : ℗ 2015 Interscope Records</code></p>
<p><code>Cover                          : Yes</code></p>
<p><code>Cover type                     : Cover (front)</code></p>
<p><code>Cover MIME                     : image/jpeg</code></p>
<h1><code>Audio</code></h1>
<p><code>Format                         : MPEG Audio</code></p>
<p><code>Format version                 : Version 1</code></p>
<p><code>Format profile                 : Layer 3</code></p>
<p><code>Mode                           : Joint stereo</code></p>
<p><code>Duration                       : 3mn 38s</code></p>
<p><code>Bit rate mode                  : Constant</code></p>
<p><code>Bit rate                       : 320 Kbps</code></p>
<p><code>Channel(s)                     : 2 channels</code></p>
<p><code>Sampling rate                  : 44.1 KHz</code></p>
<p><code>Compression mode               : Lossy</code></p>
<p><code>Stream size                    : 8.31 MiB (93%)</code></p>
<p><code>Writing library                : LAME3.99</code></p>
<p><code>Encoding settings              : -m j -V 4 -q 0 -lowpass 20.5</code></p></p>
    <p class="toolbar">
        <a href="https://www.reddit.com/r/megalinks/comments/702th0">permalink</a>
    </p>
</div>

</body>

<script>
function toggle_collapse(comment_div)
{
    var button = comment_div.getElementsByClassName("toggle_hide_button")[0];
    var collapsible = comment_div.getElementsByClassName("collapsible")[0];
    if (collapsible.classList.contains("hidden"))
    {
        collapsible.classList.remove("hidden");
        button.innerText = "[-]";
    }
    else
    {
        collapsible.classList.add("hidden");
        button.innerText = "[+]";
    }
}
</script>
</html>
